<svg width="679" height="692" viewBox="0 0 679 692" fill="none" xmlns="http://www.w3.org/2000/svg">
<mask id="mask0" mask-type="alpha" maskUnits="userSpaceOnUse" x="-51" y="0" width="730" height="692">
<rect x="-51" width="730" height="692" fill="#C4C4C4"/>
</mask>
<g mask="url(#mask0)">
<path opacity="0.4" d="M456.363 44.1952C337.167 -40.762 57.0148 22.2483 -35.8698 44.008L-35.6223 643.09C100.292 632.628 569.144 689.32 582.127 522.325C593.384 466.329 593.375 443.741 626.188 407.169C711.381 312.217 683.37 221.639 593.261 169.985C522.742 129.561 504.718 78.6611 456.363 44.1952Z" fill="url(#paint0_linear)"/>
<path d="M418.012 89.6171C308.457 4.70538 50.8628 67.8221 -34.543 89.6171L-34.5432 688.698C90.4194 678.184 521.457 734.698 533.457 567.698C543.828 511.698 543.828 489.11 574.01 452.526C652.372 357.542 626.653 266.974 543.828 215.355C479.008 174.958 462.457 124.065 418.012 89.6171Z" fill="url(#paint1_linear)"/>
<g opacity="0.3" filter="url(#filter0_f)">
<path d="M428.85 566.37C292.024 532.537 112.219 533.803 39.4198 538.665C-6.41942 545.483 26.7648 551.367 49.0868 553.457C98.1805 560.797 -99.3983 577.883 -204.324 585.509C-305.976 588.471 -266.776 596.008 -234.469 599.405C59.9105 617.684 315.516 610.555 406.522 604.705C505.727 595.784 462.743 575.431 428.85 566.37Z" fill="url(#paint2_linear)"/>
</g>
<g opacity="0.3" filter="url(#filter1_f)">
<ellipse cx="474.666" cy="529.902" rx="24.2094" ry="7.86807" fill="url(#paint3_linear)"/>
</g>
<path d="M478.072 535.188C485.342 535.774 491.248 533.704 491.937 530.031L493.357 522.371C492.565 526.602 484.836 528.708 476.072 527.068C472.463 526.453 469.01 525.135 465.908 523.19C463.599 521.655 462.075 519.866 461.676 518.087L461.273 518.364L460.205 524.12C459.428 528.354 465.886 533.102 474.652 534.727C475.812 534.943 476.953 535.092 478.072 535.188Z" fill="#E0A780"/>
<path d="M467.848 511.735C464.342 512.555 461.927 514.214 461.48 516.467C461.376 517.003 461.389 517.553 461.516 518.081C461.9 519.844 463.408 521.608 465.703 523.112L465.877 522.872L487.433 514.537C484.729 513.136 481.815 512.164 478.795 511.657C475.189 510.955 471.466 510.981 467.848 511.735Z" fill="#FFDDC4"/>
<path d="M465.777 522.882L465.603 523.125C468.762 525.122 472.275 526.481 475.943 527.124C484.849 528.836 492.688 526.726 493.473 522.418C493.95 519.731 491.577 516.832 487.569 514.615L465.777 522.882Z" fill="#F3BB93"/>
<g opacity="0.5" filter="url(#filter2_f)">
<ellipse cx="397.003" cy="658.458" rx="27.0148" ry="8.74007" fill="url(#paint4_linear)"/>
</g>
<path d="M389.153 658.207C378.84 659.038 370.462 656.102 369.484 650.89L367.469 640.024C368.593 646.026 379.558 649.014 391.989 646.687C397.109 645.815 402.009 643.946 406.409 641.185C409.684 639.009 411.847 636.471 412.412 633.947L412.985 634.34L414.499 642.506C415.602 648.512 406.44 655.248 394.004 657.553C392.358 657.86 390.74 658.07 389.153 658.207Z" fill="#C18C88"/>
<path d="M403.653 624.935C408.626 626.099 412.053 628.452 412.687 631.648C412.834 632.409 412.816 633.189 412.635 633.939C412.091 636.44 409.951 638.941 406.696 641.075L406.449 640.735L375.869 628.911C379.704 626.923 383.839 625.545 388.123 624.825C393.238 623.829 398.52 623.866 403.653 624.935Z" fill="#FFC3C0"/>
<path d="M406.592 640.749L406.839 641.095C402.358 643.928 397.374 645.856 392.171 646.768C379.537 649.196 368.416 646.202 367.302 640.092C366.626 636.279 369.992 632.167 375.678 629.022L406.592 640.749Z" fill="#F1948E"/>
<g opacity="0.2" filter="url(#filter3_f)">
<ellipse cx="512.457" cy="614.88" rx="34" ry="5.74648" fill="url(#paint5_linear)"/>
</g>
<path d="M522.89 609.323L518.352 591.9C518.186 591.262 517.534 590.88 516.896 591.046L504.629 594.242C499.188 595.659 495.915 601.238 497.333 606.678C498.75 612.118 504.328 615.391 509.769 613.974L522.037 610.778C522.674 610.612 523.056 609.961 522.89 609.323Z" fill="#EA5F56"/>
<path d="M540.527 602.875C541.906 600.526 542.287 597.781 541.6 595.146C540.183 589.706 534.604 586.433 529.164 587.85L516.896 591.046L522.036 610.778L534.304 607.583C536.939 606.896 539.149 605.224 540.527 602.875Z" fill="#D8E3FF"/>
<rect opacity="0.4" x="503.289" y="596.947" width="21.7645" height="3.84079" rx="1.92039" transform="rotate(-12.5606 503.289 596.947)" fill="white"/>
<g opacity="0.4" filter="url(#filter4_f)">
<ellipse cx="126.382" cy="620.06" rx="38.9247" ry="5.63384" fill="url(#paint6_linear)"/>
</g>
<path d="M111.29 618.303C103.343 618.943 96.8883 616.681 96.135 612.666L94.5825 604.294C95.4487 608.918 103.897 611.22 113.475 609.427C117.42 608.756 121.195 607.315 124.586 605.188C127.109 603.511 128.775 601.556 129.211 599.611L129.652 599.914L130.819 606.206C131.668 610.833 124.609 616.024 115.028 617.799C113.759 618.036 112.512 618.198 111.29 618.303Z" fill="#E79A63"/>
<path d="M122.462 592.668C126.294 593.565 128.934 595.377 129.423 597.84C129.536 598.427 129.522 599.028 129.383 599.605C128.964 601.532 127.315 603.459 124.807 605.103L124.616 604.841L101.055 595.731C104.01 594.199 107.196 593.138 110.496 592.583C114.438 591.815 118.507 591.844 122.462 592.668Z" fill="#FFDDC4"/>
<path d="M124.726 604.852L124.916 605.118C121.463 607.301 117.624 608.787 113.615 609.489C103.88 611.361 95.312 609.054 94.4538 604.346C93.9326 601.408 96.5259 598.24 100.907 595.816L124.726 604.852Z" fill="#F3BB93"/>
<g filter="url(#filter5_d)">
<path d="M442.978 53.5788C418.936 68.8972 338.558 125.726 228.911 181.43C278.956 292.589 223.71 414.88 200.7 545.281C210.661 539.777 319.554 516.857 439.088 450.807C442.331 400.202 494.022 161.645 442.978 53.5788Z" fill="white"/>
</g>
<mask id="mask1" mask-type="alpha" maskUnits="userSpaceOnUse" x="217" y="59" width="243" height="393">
<rect width="261.635" height="259.655" transform="matrix(-0.862053 0.506819 0.0640495 0.997947 442.804 59.814)" fill="#C4C4C4"/>
</mask>
<g mask="url(#mask1)">
<path d="M287.79 150.95L373.093 100.798L388.638 339.415C388.871 343.057 385.255 347.451 382.462 346.825L350.139 339.877C346.653 339.155 342.012 341.883 338.869 346.503L309.756 389.571C307.244 393.315 303.347 393.339 303.113 389.697L287.79 150.95Z" fill="#5AD3C0"/>
<path d="M352.99 327.351C358.95 327.38 365.546 320.982 368.146 312.093L371.818 300.127C372.515 297.81 373.676 296.066 375.283 294.628L381.129 289.749L380.827 285.22L374.383 290.705C371.973 292.862 370.045 295.858 368.803 299.58L365.131 311.546C363.21 317.851 358.426 322.698 353.955 322.676L345.854 322.446C343.508 322.359 340.839 323.83 338.67 326.406L331.172 335.234C327.226 339.894 322.158 340.478 319.358 336.774L314.409 329.56C312.982 327.308 310.6 326.688 308.084 327.247L302.864 328.743L301.186 329.115L301.488 333.644L307.547 331.961C309.224 331.589 310.527 331.976 311.472 333.388L317.037 340.263C320.577 345.492 327.545 344.689 333.08 338.324L340.578 329.497C341.962 327.906 343.604 327.001 345.094 327.008L352.99 327.351Z" fill="#3B5393"/>
<path d="M284.131 302.153L290.17 306.857C291.956 308.205 292.977 310.736 292.993 314.065L292.871 324.658C292.836 330.326 296.255 333.875 300.611 332.554L308.932 330.38C311.434 329.801 313.595 330.434 315.21 332.387L320.109 338.99C322.678 342.484 327.715 341.823 331.85 337.283L339.322 328.89C341.484 326.441 344.139 325.01 346.47 325.038L354.501 324.817C358.738 324.844 363.503 320.221 365.632 314.195L369.31 302.969C370.349 299.585 372.476 296.64 374.876 294.577L382.892 287.945C387.3 284.285 390.024 277.681 389.039 272.564L387.527 262.851C387.119 259.99 387.732 256.578 389.196 253.221L394.185 242.573C396.96 236.712 396.536 230.521 393.201 228.211L387.162 223.506C385.376 222.158 384.355 219.627 384.339 216.298L384.478 205.953C384.513 200.285 381.094 196.736 376.738 198.057L368.417 200.232C365.915 200.81 363.755 200.177 362.139 198.224L357.24 191.621C354.671 188.127 349.635 188.788 345.499 193.328L338.027 201.721C335.865 204.17 333.21 205.601 330.879 205.573L322.831 205.547C318.594 205.52 313.829 210.143 311.7 216.168L308.022 227.394C306.983 230.779 304.856 233.723 302.456 235.787L294.44 242.419C290.032 246.078 287.308 252.682 288.294 257.8L289.806 267.512C290.213 270.373 289.6 273.785 288.136 277.142L283.147 287.791C280.355 293.404 280.779 299.594 284.131 302.153Z" fill="#56A5E6"/>
<path d="M354.5 324.831C358.737 324.858 363.503 320.234 365.631 314.207L369.31 302.978C370.348 299.593 372.476 296.648 374.876 294.584L382.892 287.95C387.301 284.29 390.025 277.684 389.039 272.566L387.527 262.851C387.119 259.989 387.733 256.576 389.197 253.219L394.186 242.568C396.961 236.706 396.537 230.514 393.202 228.202L387.163 223.497C385.376 222.149 384.356 219.617 384.34 216.287L384.478 205.939C384.514 200.27 381.094 196.72 376.738 198.042L373.419 199.06L368.229 200.574C365.727 201.153 363.566 200.52 361.95 198.566L357.068 192.21C354.5 188.715 349.463 189.376 345.326 193.917L337.854 202.312C335.692 204.761 333.038 206.193 330.706 206.165L322.658 206.139C318.42 206.112 313.655 210.736 311.526 216.763L307.831 227.744C306.792 231.129 304.664 234.074 302.264 236.138L294.248 242.771C289.84 246.432 287.116 253.037 288.101 258.156L289.613 267.871C290.021 270.733 289.407 274.145 287.943 277.503L282.955 288.154C280.18 294.016 280.603 300.208 283.938 302.52L289.978 307.225C291.764 308.573 292.785 311.105 292.801 314.435L292.679 325.03C292.644 330.699 296.063 334.249 300.42 332.928L303.925 331.551L309.116 330.037C311.617 329.459 313.778 330.092 315.394 332.045L320.293 338.65C322.862 342.145 327.899 341.484 332.035 336.942L339.507 328.548C341.669 326.098 344.324 324.667 346.655 324.694L354.5 324.831Z" fill="#567FEA"/>
<path opacity="0.3" d="M294.487 290.259C296.279 318.182 317.437 329.244 341.754 314.947C366.071 300.651 384.322 266.42 382.53 238.497C380.738 210.574 359.58 199.512 335.263 213.809C310.946 228.105 292.695 262.336 294.487 290.259Z" stroke="white" stroke-width="1.53114"/>
<path fill-rule="evenodd" clip-rule="evenodd" d="M343.688 281.542L343.411 281.8C343.317 280.332 343.234 279.048 343.311 277.766C343.294 277.491 343.577 276.943 343.795 276.625C344.232 276.087 344.672 275.613 345.097 275.156L345.097 275.155L345.097 275.155C345.391 274.84 345.677 274.532 345.949 274.216C346.61 273.351 346.723 272.619 346.068 272.338C345.737 272.152 345.413 272.057 345.094 272.054C344.825 272.051 344.555 272.046 344.286 272.042C342.8 272.016 341.306 271.989 339.778 272.324C333.257 273.683 327.268 273.397 321.462 272.242C315.09 270.944 310.842 266.778 308.985 258.924C307.982 254.468 308.614 248.196 310.255 243.995C317.711 224.954 332.469 219.228 340.003 224.983C341.171 225.819 342.044 227.019 342.18 229.128C342.239 230.045 341.955 230.593 341.259 230.907L341.259 230.907L341.259 230.907L341.259 230.907L341.259 230.907L341.259 230.907C340.793 231.086 340.327 231.265 339.937 231.398C337.748 232.019 336.715 232.055 334.491 230.888C334.574 231.598 334.628 232.136 334.68 232.645L334.68 232.645L334.68 232.645C334.738 233.222 334.792 233.76 334.88 234.467C332.8 233.624 332.072 232.999 331.382 232.407C331.15 232.208 330.923 232.013 330.65 231.814C330.313 231.536 329.895 231.211 329.505 231.345C325.428 232.315 322.784 234.535 319.939 238.587C316.652 243.185 315.276 250.276 316.461 255.099C317.511 259.051 319.806 261.318 322.608 262.811C327.641 265.563 333.542 265.711 339.578 265.493C342.098 265.42 344.559 265.665 346.996 265.908C348.018 266.01 349.036 266.111 350.052 266.189C350.366 266.155 350.591 266.295 350.836 266.447C350.899 266.487 350.963 266.527 351.031 266.565C353.179 267.777 353.255 270.206 351 273.531C348.895 276.701 346.365 279.053 343.688 281.542ZM344.128 300.414L344.263 302.523C342.688 302.783 341.277 303.137 339.873 303.582C339.088 303.757 338.828 303.434 338.77 302.517L336.974 274.543C336.963 274.37 336.969 274.186 336.975 273.993C336.982 273.777 336.99 273.547 336.974 273.305C337.809 273.134 338.598 273.019 339.378 272.906L339.378 272.906L339.378 272.906L339.378 272.906C339.994 272.817 340.604 272.728 341.229 272.613C342.096 272.483 342.356 272.807 342.421 273.815L344.128 300.414ZM339.258 306.418C338.975 308.203 338.326 309.25 337.039 310.292C334.761 312.012 332.495 313.916 330.518 316.601C329.639 317.784 328.765 319.059 328.789 320.663L355.945 304.697C355.804 304.53 355.678 304.342 355.558 304.165C355.315 303.804 355.099 303.483 354.83 303.449C353.621 303.209 352.417 303.06 351.078 303.276C350.036 303.425 348.934 303.84 347.862 304.243C347.392 304.42 346.927 304.595 346.475 304.745C346.19 304.854 345.953 304.792 345.702 304.727L345.702 304.727L345.702 304.727C345.544 304.686 345.38 304.643 345.195 304.641C345.088 304.628 344.987 304.605 344.888 304.583C344.615 304.521 344.361 304.465 344.079 304.63C342.553 305.085 341.037 305.698 339.583 306.286L339.583 306.286L339.258 306.418ZM329.878 297.942C330.475 292.356 333.632 288.215 337.191 284.124L337.397 287.335C337.35 287.838 337.149 288.432 336.86 288.888C336.521 289.421 336.169 289.955 335.815 290.491C334.96 291.785 334.097 293.092 333.395 294.446C332.191 296.772 331.937 299.015 332.911 300.537C333.618 301.644 334.486 302.752 335.554 303.266C337.778 304.433 340.545 304.139 343.425 303.112C344.342 302.771 345.228 302.54 346.103 302.312L346.103 302.312C346.489 302.211 346.872 302.111 347.255 302.003C347.262 302.11 347.24 302.201 347.222 302.277C347.21 302.331 347.199 302.377 347.201 302.415C346.994 302.536 346.796 302.664 346.601 302.789L346.601 302.789L346.601 302.789C346.218 303.035 345.847 303.274 345.437 303.452C344.122 304.035 342.884 304.573 341.645 305.11L341.643 305.112C337.925 306.726 334.668 306.833 332.214 304.564C330.686 303.083 329.529 301.192 329.878 297.942ZM335.387 232.455C335.706 232.74 336.087 232.935 336.462 233.129C337.675 233.753 338.836 234.35 337.723 237.84C338.484 237.297 339.039 236.019 338.927 234.276C339.889 234.377 341.464 235.355 342.414 236.509C342.65 235.228 342.214 234.628 341.712 234.257C339.877 232.956 337.706 232.615 335.387 232.455ZM357.916 232.385C357.921 232.169 357.926 231.94 357.945 231.661L317.593 255.384C317.646 257.447 318.507 258.464 319.67 259.208C321.983 260.513 324.756 260.311 327.665 259.743C328.06 259.7 329.465 259.255 330.167 259.033C330.303 258.99 330.438 258.936 330.572 258.884C331.129 258.664 331.655 258.456 332.079 259.051C332.81 260.525 334.043 261.132 335.554 261.101C335.961 261.242 336.132 261.427 336.173 262.069L336.256 263.353C336.432 264.867 336.78 265.329 337.884 265.156C338.789 265.01 339.63 264.988 340.521 264.966C340.948 264.955 341.386 264.944 341.849 264.919L341.461 258.865C341.425 258.315 341.555 257.858 341.998 257.312C343.402 255.63 344.471 253.669 344.967 251.474C345.125 250.616 345.57 250.272 345.987 249.951C346.037 249.912 346.087 249.874 346.135 249.835C349.08 247.342 352.001 244.483 354.474 240.84C356.15 238.427 357.502 235.919 357.88 233.127C357.905 232.859 357.91 232.63 357.916 232.385Z" fill="white"/>
</g>
<mask id="mask2" mask-type="alpha" maskUnits="userSpaceOnUse" x="211" y="300" width="250" height="244">
<rect width="201.667" height="181.627" transform="matrix(-0.934434 0.356136 -0.332106 0.943242 460.019 300.672)" fill="#C4C4C4"/>
</mask>
<g mask="url(#mask2)">
<rect width="92.5171" height="9.36222" rx="4.68111" transform="matrix(-0.934434 0.356136 -0.332106 0.943242 384.596 388.291)" fill="#567FEA"/>
<rect width="182.955" height="9.36222" rx="4.68111" transform="matrix(-0.934434 0.356136 -0.332106 0.943242 418.007 398.494)" fill="#567FEA"/>
</g>
<path d="M183.465 269.86C182.931 267.738 181.92 263.127 181.481 261.087C170.506 249.118 160.423 258.837 156.753 265.192C153.425 271.151 153.839 275.463 155.925 277.968L153.277 287.469C156.424 296.899 155.693 294.388 159.937 296.188C163.85 297.259 167.58 296.032 168.137 295.807C167.354 295.593 166.69 292.742 167.101 291.249C167.511 289.755 168.888 283.756 172.562 284.849C185.75 289.723 185.326 276.887 183.465 269.86Z" fill="#F3BB93"/>
<path fill-rule="evenodd" clip-rule="evenodd" d="M167.02 291.646C167.04 291.506 167.067 291.372 167.101 291.248C167.123 291.169 167.147 291.077 167.175 290.974C167.664 289.138 169.083 283.813 172.562 284.849C173.386 285.154 174.157 285.389 174.878 285.561C174.882 285.558 174.886 285.555 174.89 285.551C173.538 285.236 170.227 283.935 167.807 281.251C166.446 280.563 164.339 281.7 166.804 291.745C166.834 291.748 166.908 291.713 167.02 291.646Z" fill="url(#paint7_linear)"/>
<path d="M172.622 261.583C176.962 265.103 181.387 264.388 182.672 264.172C186.194 251.132 171.798 248.918 165.19 249.651C155.852 250.403 151.792 258.606 150.93 262.613C149.94 271.966 154.794 277.49 157.344 279.083L161.963 276.323C157.935 269.857 160.75 269.374 162.662 269.941C164.032 270.347 165.041 269.879 165.086 268.163C166.644 258.789 170.759 259.87 172.622 261.583Z" fill="url(#paint8_linear)"/>
<path d="M180.349 268.266C179.469 268.158 178.618 268.164 177.777 268.53C177.401 268.695 176.949 268.897 176.678 269.228" stroke="#3D323C" stroke-width="0.453621" stroke-linecap="round" stroke-linejoin="round"/>
<path d="M182.066 278.504C181.338 278.645 180.815 278.507 180.197 278.093C179.814 277.835 179.349 277.421 179.119 276.998" stroke="#3D323C" stroke-width="0.453621" stroke-linecap="round" stroke-linejoin="round"/>
<path d="M185.647 273.646C185.475 273.385 184.092 271.64 183.422 270.801L183.915 274.89C185.684 274.195 185.807 273.771 185.647 273.646Z" fill="#F3BB93"/>
<path d="M82.5274 536.692L77.1373 527.62L85.1671 519.543L92.8101 527.156L82.5274 536.692Z" fill="#F3BB93"/>
<path d="M70.9843 530.754C73.0483 530.23 75.96 528.024 77.4844 527.036C79.0821 530.309 80.8915 534.521 83.0285 536.368C82.0598 537.402 82.165 556.903 81.9096 561.137C81.6541 565.371 80.3035 569.095 79.6054 567.92C73.9091 558.998 66.902 537.876 66.7603 534.306C66.6187 530.736 68.9204 531.278 70.9843 530.754Z" fill="url(#paint9_linear)"/>
<path d="M82.2959 543.305L83.0283 536.368C81.941 535.409 80.8745 533.614 80.2334 532.534C78.1955 536.987 80.6615 542.472 82.2959 543.305Z" fill="white"/>
<path d="M167.493 456.805C166.637 452.993 160.811 425.933 158.004 412.879L138.76 447.196C135.575 452.327 132.498 460.906 127.705 471.264C122.36 474.513 92.572 507.082 80.1931 518.061C81.2848 520.105 82.9638 522.347 91.7394 536.335C101.882 524.221 151.134 482.279 159.388 476.657C167.641 471.035 168.563 461.569 167.493 456.805Z" fill="url(#paint10_linear)"/>
<path d="M147.759 566.112L136.035 564.511L135.078 551.236L147.22 549.697L147.759 566.112Z" fill="#F3BB93"/>
<path d="M134.163 572.468C135.241 570.182 135.51 565.892 135.793 563.767C139.766 564.665 144.698 566.049 147.852 565.414C148.019 567.059 164.735 581.106 168.159 584.413C171.583 587.72 173.762 591.668 172.244 591.461C160.423 590.252 137.222 581.404 134.072 578.946C130.921 576.487 133.085 574.755 134.163 572.468Z" fill="url(#paint11_linear)"/>
<path d="M153.23 571.122L147.853 565.414C146.231 565.723 143.911 565.406 142.516 565.215C144.81 570.327 151.312 572.028 153.23 571.122Z" fill="white"/>
<path d="M156.139 471.984L161.001 388.421L123.038 390.204C121.297 399.061 122.158 400.036 121.727 414.455C121.727 414.455 121.055 441.779 129.868 466.231C131.57 473.349 134.596 475.758 133.589 483.31C127.83 508.907 130.828 539.898 131.516 557.754L149.306 557.342L156.139 471.984Z" fill="url(#paint12_linear)"/>
<path d="M161.252 397.199C168.611 363.624 175.062 335.814 173.555 325.916L154.986 315.78L141.491 392.522C153.734 393.247 159.585 395.971 161.252 397.199Z" fill="url(#paint13_linear)"/>
<path d="M161.643 380.367C168.791 364.373 171.901 345.885 173.259 334.894L165.493 333.072L137.797 404.599L152.43 405.415C153.161 400.232 158.877 386.557 161.643 380.367Z" fill="url(#paint14_linear)"/>
<path d="M240.773 249.919C239.66 250.717 238.9 255.297 237.412 257.786C235.925 260.274 236.252 264.789 236.252 264.789C239.349 265.168 241.14 265.177 242.308 264.372C242.791 263.636 244.751 261.984 245.798 261.338C247.454 260.315 248.11 258.444 248.698 256.92C248.698 256.92 250.362 253.434 250.23 251.211C250.099 248.987 246.206 249.229 245.178 249.751C249.131 247.744 250.746 244.29 250.821 243.793C250.671 242.851 250.013 243.178 249.703 243.459C248.674 244.088 242.043 249.08 240.773 249.919Z" fill="#F3BB93"/>
<path d="M237.14 258.962C234.631 263.451 219.199 283.51 211.485 292.759C213.429 296.932 217.826 305.561 218.705 305.113C219.583 304.664 228.745 291.209 241.513 264.533C241.063 263.643 239.67 260.445 237.14 258.962Z" fill="#F3BB93"/>
<path d="M175.453 293.855C166.663 291.489 160.514 289.694 156.924 288.514C137.414 279.821 129.296 322.102 126.367 342.166C124.441 355.359 122.438 362.552 120.768 367.13C116.995 377.471 92.6256 410.481 84.2758 438.328C83.3747 439.914 86.2924 441.029 86.2924 441.029C89.7805 442.338 99.4995 448.687 116.698 453.206C125.366 455.485 131.097 458.903 132.878 460.328C131.741 454.311 153.756 390.676 158.858 380.248C167.39 362.671 172.124 340.41 173.425 331.477C173.94 327.935 175.115 324.216 176.805 319.145C184.131 318.615 202.835 319.21 209.258 314.477C215.681 309.744 231.908 289.734 231.908 289.734C230.218 278.643 223.457 273.572 222.104 276.212L209.934 291.087C205.54 297.51 205.201 293.855 201.145 295.143C194.649 296.629 181.538 295.143 175.453 293.855Z" fill="url(#paint15_linear)"/>
<path opacity="0.7" d="M206.554 312.449C199.764 315.184 174.776 314.477 174.776 314.477C174.776 314.477 174.453 314.485 177.143 318.871C188.299 318.871 200.131 317.181 200.131 317.181C206.216 316.843 209.258 314.815 214.329 309.068L224.471 296.222C218.724 303.321 213.344 309.713 206.554 312.449Z" fill="url(#paint16_linear)"/>
<path opacity="0.7" d="M157.89 381.967C161.586 371.312 170.04 328.369 171.453 314.524L174.872 314.523L177.047 318.875C174.25 335.347 164.305 374.197 157.89 381.967Z" fill="url(#paint17_linear)"/>
<path d="M153.282 287.419L155.93 277.918C156.312 278.4 157 278.856 157.296 279.024L156.412 288.276C155.701 287.873 154.029 287.537 153.282 287.419Z" fill="url(#paint18_linear)"/>
<path opacity="0.7" d="M88.0287 438.591C88.0287 438.591 118.192 451.492 128.948 450.119C130.251 440.35 142.956 405.24 142.956 405.24C128.654 417.852 102.637 433.457 88.0287 438.591Z" fill="url(#paint19_linear)"/>
</g>
<defs>
<filter id="filter0_f" x="-281" y="515.541" width="759.388" height="120.222" filterUnits="userSpaceOnUse" color-interpolation-filters="sRGB">
<feFlood flood-opacity="0" result="BackgroundImageFix"/>
<feBlend mode="normal" in="SourceGraphic" in2="BackgroundImageFix" result="shape"/>
<feGaussianBlur stdDeviation="5" result="effect1_foregroundBlur"/>
</filter>
<filter id="filter1_f" x="442.316" y="513.893" width="64.7019" height="32.0192" filterUnits="userSpaceOnUse" color-interpolation-filters="sRGB">
<feFlood flood-opacity="0" result="BackgroundImageFix"/>
<feBlend mode="normal" in="SourceGraphic" in2="BackgroundImageFix" result="shape"/>
<feGaussianBlur stdDeviation="4.07076" result="effect1_foregroundBlur"/>
</filter>
<filter id="filter2_f" x="361" y="640.73" width="72.0056" height="35.4562" filterUnits="userSpaceOnUse" color-interpolation-filters="sRGB">
<feFlood flood-opacity="0" result="BackgroundImageFix"/>
<feBlend mode="normal" in="SourceGraphic" in2="BackgroundImageFix" result="shape"/>
<feGaussianBlur stdDeviation="4.49401" result="effect1_foregroundBlur"/>
</filter>
<filter id="filter3_f" x="472.695" y="603.371" width="79.5248" height="23.0177" filterUnits="userSpaceOnUse" color-interpolation-filters="sRGB">
<feFlood flood-opacity="0" result="BackgroundImageFix"/>
<feBlend mode="normal" in="SourceGraphic" in2="BackgroundImageFix" result="shape"/>
<feGaussianBlur stdDeviation="2.88119" result="effect1_foregroundBlur"/>
</filter>
<filter id="filter4_f" x="81.294" y="608.263" width="90.1755" height="23.5937" filterUnits="userSpaceOnUse" color-interpolation-filters="sRGB">
<feFlood flood-opacity="0" result="BackgroundImageFix"/>
<feBlend mode="normal" in="SourceGraphic" in2="BackgroundImageFix" result="shape"/>
<feGaussianBlur stdDeviation="3.08151" result="effect1_foregroundBlur"/>
</filter>
<filter id="filter5_d" x="34.2261" y="43.5789" width="600.993" height="560.239" filterUnits="userSpaceOnUse" color-interpolation-filters="sRGB">
<feFlood flood-opacity="0" result="BackgroundImageFix"/>
<feColorMatrix in="SourceAlpha" type="matrix" values="0 0 0 0 0 0 0 0 0 0 0 0 0 0 0 0 0 0 127 0"/>
<feOffset dx="5" dy="10"/>
<feGaussianBlur stdDeviation="10"/>
<feColorMatrix type="matrix" values="0 0 0 0 0.385977 0 0 0 0 0.405595 0 0 0 0 0.755459 0 0 0 0.46 0"/>
<feBlend mode="normal" in2="BackgroundImageFix" result="effect1_dropShadow"/>
<feBlend mode="normal" in="SourceGraphic" in2="effect1_dropShadow" result="shape"/>
</filter>
<linearGradient id="paint0_linear" x1="533.046" y1="515.132" x2="2.97813" y2="-412.342" gradientUnits="userSpaceOnUse">
<stop stop-color="#5AD3C0" stop-opacity="0.07"/>
<stop offset="0.395805" stop-color="#80BAFF" stop-opacity="0.56"/>
<stop offset="0.676836" stop-color="#5E6EEE" stop-opacity="0.968669"/>
<stop offset="0.993208" stop-color="#565CEA" stop-opacity="0.31"/>
</linearGradient>
<linearGradient id="paint1_linear" x1="488.335" y1="560.524" x2="-63.3172" y2="-326.532" gradientUnits="userSpaceOnUse">
<stop stop-color="#5AD3C0" stop-opacity="0.07"/>
<stop offset="0.395805" stop-color="#80BAFF" stop-opacity="0.56"/>
<stop offset="0.676836" stop-color="#5E6EEE" stop-opacity="0.968669"/>
<stop offset="0.993208" stop-color="#565CEA" stop-opacity="0.31"/>
</linearGradient>
<linearGradient id="paint2_linear" x1="449.555" y1="604.83" x2="-348.493" y2="593.078" gradientUnits="userSpaceOnUse">
<stop offset="0.00389023" stop-color="#85B6B4"/>
<stop offset="1" stop-color="#BCE2F2"/>
</linearGradient>
<linearGradient id="paint3_linear" x1="451.694" y1="537.77" x2="504.14" y2="537.014" gradientUnits="userSpaceOnUse">
<stop offset="0.469613" stop-color="#282F7D"/>
<stop offset="1" stop-color="#5662DE" stop-opacity="0"/>
</linearGradient>
<linearGradient id="paint4_linear" x1="371.369" y1="667.198" x2="429.892" y2="666.35" gradientUnits="userSpaceOnUse">
<stop offset="0.469613" stop-color="#282F7D"/>
<stop offset="1" stop-color="#5662DE" stop-opacity="0"/>
</linearGradient>
<linearGradient id="paint5_linear" x1="480.195" y1="620.627" x2="553.809" y2="618.585" gradientUnits="userSpaceOnUse">
<stop offset="0.469613" stop-color="#282F7D"/>
<stop offset="1" stop-color="#5662DE" stop-opacity="0"/>
</linearGradient>
<linearGradient id="paint6_linear" x1="89.4462" y1="625.694" x2="173.699" y2="622.965" gradientUnits="userSpaceOnUse">
<stop offset="0.469613" stop-color="#282F7D"/>
<stop offset="1" stop-color="#5662DE" stop-opacity="0"/>
</linearGradient>
<linearGradient id="paint7_linear" x1="172.323" y1="282.458" x2="166.259" y2="284.256" gradientUnits="userSpaceOnUse">
<stop stop-color="#E0A780"/>
<stop offset="1" stop-color="#E0A780" stop-opacity="0"/>
</linearGradient>
<linearGradient id="paint8_linear" x1="154.881" y1="273.498" x2="189.168" y2="273.23" gradientUnits="userSpaceOnUse">
<stop stop-color="#343333"/>
<stop offset="1" stop-color="#503050"/>
</linearGradient>
<linearGradient id="paint9_linear" x1="71.7689" y1="527.518" x2="56.1568" y2="554.455" gradientUnits="userSpaceOnUse">
<stop stop-color="#273292"/>
<stop offset="1" stop-color="#0D196D"/>
</linearGradient>
<linearGradient id="paint10_linear" x1="176.06" y1="398.649" x2="75.7842" y2="542.797" gradientUnits="userSpaceOnUse">
<stop stop-color="#2E3492"/>
<stop offset="1" stop-color="#0D196D"/>
</linearGradient>
<linearGradient id="paint11_linear" x1="131.981" y1="569.396" x2="145.495" y2="602.512" gradientUnits="userSpaceOnUse">
<stop stop-color="#3B47B0"/>
<stop offset="1" stop-color="#15227D"/>
</linearGradient>
<linearGradient id="paint12_linear" x1="161.666" y1="399.17" x2="209.956" y2="425.118" gradientUnits="userSpaceOnUse">
<stop stop-color="#3B47B0"/>
<stop offset="1" stop-color="#15227D"/>
</linearGradient>
<linearGradient id="paint13_linear" x1="157.654" y1="318.769" x2="176.772" y2="387.135" gradientUnits="userSpaceOnUse">
<stop offset="0.0127845" stop-color="#F6F9FF"/>
<stop offset="1" stop-color="#E9EFFF"/>
</linearGradient>
<linearGradient id="paint14_linear" x1="172.035" y1="339.827" x2="192.694" y2="365.71" gradientUnits="userSpaceOnUse">
<stop stop-color="#6D79C4"/>
<stop offset="1" stop-color="#D7DDFB" stop-opacity="0"/>
</linearGradient>
<linearGradient id="paint15_linear" x1="112.58" y1="315.038" x2="162.533" y2="431.092" gradientUnits="userSpaceOnUse">
<stop offset="0.0127845" stop-color="white"/>
<stop offset="1" stop-color="#EAF0FF"/>
</linearGradient>
<linearGradient id="paint16_linear" x1="231.588" y1="302.769" x2="182.894" y2="352.163" gradientUnits="userSpaceOnUse">
<stop stop-color="#C4CCE2" stop-opacity="0.52"/>
<stop offset="0.954354" stop-color="#C8D0E7" stop-opacity="0"/>
</linearGradient>
<linearGradient id="paint17_linear" x1="167.521" y1="362.093" x2="159.232" y2="362.367" gradientUnits="userSpaceOnUse">
<stop stop-color="#C4CCE2" stop-opacity="0.52"/>
<stop offset="0.954354" stop-color="#C8D0E7" stop-opacity="0"/>
</linearGradient>
<linearGradient id="paint18_linear" x1="155.995" y1="275.834" x2="157.818" y2="285.426" gradientUnits="userSpaceOnUse">
<stop stop-color="#BC8660"/>
<stop offset="1" stop-color="#F3BB93"/>
</linearGradient>
<linearGradient id="paint19_linear" x1="126.076" y1="431.352" x2="99.358" y2="448.524" gradientUnits="userSpaceOnUse">
<stop stop-color="#C4CCE2" stop-opacity="0.52"/>
<stop offset="0.954354" stop-color="#C8D0E7" stop-opacity="0"/>
</linearGradient>
</defs>
</svg>
