<svg xmlns="http://www.w3.org/2000/svg" width="62.902" height="70.695" viewBox="0 0 62.902 70.695">
  <defs>
    <style>
      .cls-1 {
        opacity: 0.25;
        mix-blend-mode: multiply;
        isolation: isolate;
      }

      .cls-2, .cls-4 {
        fill: #2a507a;
      }

      .cls-12, .cls-14, .cls-3, .cls-5, .cls-6, .cls-9 {
        fill: none;
        stroke-miterlimit: 10;
      }

      .cls-3, .cls-5, .cls-6 {
        stroke: #2a507a;
      }

      .cls-3, .cls-9 {
        stroke-width: 0.25px;
      }

      .cls-10, .cls-4 {
        opacity: 0.7;
      }

      .cls-12, .cls-14, .cls-5, .cls-6 {
        stroke-linecap: round;
      }

      .cls-12, .cls-5 {
        stroke-width: 1.25px;
      }

      .cls-14, .cls-6 {
        stroke-width: 0.75px;
      }

      .cls-7 {
        fill: #faad26;
      }

      .cls-8 {
        fill: #ffc871;
      }

      .cls-14, .cls-9 {
        stroke: #101747;
      }

      .cls-10 {
        fill: #ace2f9;
      }

      .cls-11 {
        fill: #fff;
      }

      .cls-12 {
        stroke: #192469;
      }

      .cls-13 {
        opacity: 0.3;
      }

      .cls-15 {
        fill: #192469;
      }
    </style>
  </defs>
  <g id="Group_2346" data-name="Group 2346" transform="translate(-398.354 -1568)">
    <g id="Group_2344" data-name="Group 2344" class="cls-1" transform="translate(399.687 1569.333)">
      <rect id="Rectangle_2635" data-name="Rectangle 2635" class="cls-2" width="4.99" height="3.701" transform="matrix(0.851, -0.526, 0.526, 0.851, 10.537, 11.559)"/>
      <path id="Path_1465" data-name="Path 1465" class="cls-2" d="M10.68,11.863h0A6.257,6.257,0,0,1,14.925,9.24h0Z" transform="translate(-0.145 -0.302)"/>
      <rect id="Rectangle_2636" data-name="Rectangle 2636" class="cls-2" width="3.701" height="4.99" transform="matrix(0.526, -0.851, 0.851, 0.526, 44.84, 12.084)"/>
      <path id="Path_1466" data-name="Path 1466" class="cls-2" d="M47.545,11.863h0A6.257,6.257,0,0,0,43.3,9.24h0Z" transform="translate(3.487 -0.302)"/>
      <rect id="Rectangle_2637" data-name="Rectangle 2637" class="cls-2" width="7.813" height="2.556" transform="translate(26.883 6.159)"/>
      <path id="Path_1467" data-name="Path 1467" class="cls-2" d="M34.744,2.178V7.357H24.12V2.178a14.881,14.881,0,0,1,10.624,0Z" transform="translate(1.352 -1.198)"/>
      <line id="Line_53" data-name="Line 53" class="cls-3" y1="5.179" transform="translate(26.072 0.98)"/>
      <line id="Line_54" data-name="Line 54" class="cls-3" y1="5.179" transform="translate(26.917 0.98)"/>
      <line id="Line_55" data-name="Line 55" class="cls-3" y1="5.179" transform="translate(27.772 0.98)"/>
      <line id="Line_56" data-name="Line 56" class="cls-3" y1="5.179" transform="translate(28.617 0.98)"/>
      <line id="Line_57" data-name="Line 57" class="cls-3" y1="5.179" transform="translate(29.462 0.98)"/>
      <line id="Line_58" data-name="Line 58" class="cls-3" y1="5.179" transform="translate(30.317 0.98)"/>
      <line id="Line_59" data-name="Line 59" class="cls-3" y1="5.179" transform="translate(31.162 0.98)"/>
      <line id="Line_60" data-name="Line 60" class="cls-3" y1="5.179" transform="translate(32.007 0.98)"/>
      <line id="Line_61" data-name="Line 61" class="cls-3" y1="5.179" transform="translate(32.862 0.98)"/>
      <line id="Line_62" data-name="Line 62" class="cls-3" y1="5.179" transform="translate(33.707 0.98)"/>
      <line id="Line_63" data-name="Line 63" class="cls-3" y1="5.179" transform="translate(34.563 0.98)"/>
      <line id="Line_64" data-name="Line 64" class="cls-3" y1="5.179" transform="translate(35.407 0.98)"/>
      <path id="Path_1468" data-name="Path 1468" class="cls-2" d="M34.744,2.178H24.12a14.881,14.881,0,0,1,10.624,0Z" transform="translate(1.352 -1.198)"/>
      <circle id="Ellipse_33" data-name="Ellipse 33" class="cls-2" cx="30.784" cy="30.784" r="30.784" transform="translate(0 7.793)"/>
      <circle id="Ellipse_34" data-name="Ellipse 34" class="cls-4" cx="27.728" cy="27.728" r="27.728" transform="translate(3.056 10.849)"/>
      <circle id="Ellipse_35" data-name="Ellipse 35" class="cls-2" cx="26.761" cy="26.761" r="26.761" transform="translate(4.023 11.816)"/>
      <line id="Line_65" data-name="Line 65" class="cls-5" x1="2.634" transform="translate(53.244 38.577)"/>
      <line id="Line_66" data-name="Line 66" class="cls-5" y1="2.634" transform="translate(30.784 61.037)"/>
      <line id="Line_67" data-name="Line 67" class="cls-5" x2="2.634" transform="translate(5.69 38.577)"/>
      <line id="Line_68" data-name="Line 68" class="cls-5" y2="2.645" transform="translate(30.784 13.472)"/>
      <line id="Line_69" data-name="Line 69" class="cls-6" x1="2.278" y1="1.311" transform="translate(50.244 49.813)"/>
      <line id="Line_70" data-name="Line 70" class="cls-6" y1="2.289" x2="1.311" transform="translate(18.237 58.025)"/>
      <line id="Line_71" data-name="Line 71" class="cls-6" x2="2.289" y2="1.311" transform="translate(9.046 26.03)"/>
      <line id="Line_72" data-name="Line 72" class="cls-6" x1="1.311" y2="2.278" transform="translate(42.02 16.839)"/>
      <line id="Line_73" data-name="Line 73" class="cls-6" x1="1.322" y1="2.278" transform="translate(42.009 58.037)"/>
      <line id="Line_74" data-name="Line 74" class="cls-6" y1="1.322" x2="2.278" transform="translate(9.046 49.802)"/>
      <line id="Line_75" data-name="Line 75" class="cls-6" x2="1.322" y2="2.278" transform="translate(18.237 16.839)"/>
      <line id="Line_76" data-name="Line 76" class="cls-6" x1="2.278" y2="1.322" transform="translate(50.244 26.03)"/>
      <path id="Path_1469" data-name="Path 1469" class="cls-2" d="M35.528,47.568a.834.834,0,0,1-.678-.345l-6.79-9.346,6.668-18.115a.834.834,0,1,1,1.556.578l-6.357,17.3,6.268,8.6a.834.834,0,0,1-.667,1.322Z" transform="translate(1.791 0.8)"/>
      <circle id="Ellipse_36" data-name="Ellipse 36" class="cls-2" cx="2.078" cy="2.078" r="2.078" transform="translate(28.706 36.499)"/>
    </g>
    <rect id="Rectangle_2638" data-name="Rectangle 2638" class="cls-7" width="4.99" height="3.701" transform="matrix(0.851, -0.526, 0.526, 0.851, 408.889, 1579.56)"/>
    <path id="Path_1470" data-name="Path 1470" class="cls-7" d="M9.48,10.667h0A6.257,6.257,0,0,1,13.725,8h0Z" transform="translate(399.409 1568.893)"/>
    <rect id="Rectangle_2639" data-name="Rectangle 2639" class="cls-7" width="3.701" height="4.99" transform="matrix(0.526, -0.851, 0.851, 0.526, 443.191, 1580.083)"/>
    <path id="Path_1471" data-name="Path 1471" class="cls-7" d="M46.345,10.667h0A6.257,6.257,0,0,0,42.1,8h0Z" transform="translate(403.041 1568.893)"/>
    <rect id="Rectangle_2640" data-name="Rectangle 2640" class="cls-7" width="7.813" height="2.556" transform="translate(425.237 1574.159)"/>
    <path id="Path_1472" data-name="Path 1472" class="cls-8" d="M33.544.978V6.157H22.92V.978a14.881,14.881,0,0,1,10.624,0Z" transform="translate(400.905 1568.002)"/>
    <line id="Line_77" data-name="Line 77" class="cls-9" y1="5.179" transform="translate(424.425 1568.98)"/>
    <line id="Line_78" data-name="Line 78" class="cls-9" y1="5.179" transform="translate(425.27 1568.98)"/>
    <line id="Line_79" data-name="Line 79" class="cls-9" y1="5.179" transform="translate(426.126 1568.98)"/>
    <line id="Line_80" data-name="Line 80" class="cls-9" y1="5.179" transform="translate(426.97 1568.98)"/>
    <line id="Line_81" data-name="Line 81" class="cls-9" y1="5.179" transform="translate(427.815 1568.98)"/>
    <line id="Line_82" data-name="Line 82" class="cls-9" y1="5.179" transform="translate(428.671 1568.98)"/>
    <line id="Line_83" data-name="Line 83" class="cls-9" y1="5.179" transform="translate(429.515 1568.98)"/>
    <line id="Line_84" data-name="Line 84" class="cls-9" y1="5.179" transform="translate(430.36 1568.98)"/>
    <line id="Line_85" data-name="Line 85" class="cls-9" y1="5.179" transform="translate(431.216 1568.98)"/>
    <line id="Line_86" data-name="Line 86" class="cls-9" y1="5.179" transform="translate(432.06 1568.98)"/>
    <line id="Line_87" data-name="Line 87" class="cls-9" y1="5.179" transform="translate(432.916 1568.98)"/>
    <line id="Line_88" data-name="Line 88" class="cls-9" y1="5.179" transform="translate(433.761 1568.98)"/>
    <path id="Path_1473" data-name="Path 1473" class="cls-7" d="M33.544.978H22.92a14.881,14.881,0,0,1,10.624,0Z" transform="translate(400.905 1568.002)"/>
    <circle id="Ellipse_37" data-name="Ellipse 37" class="cls-7" cx="30.784" cy="30.784" r="30.784" transform="translate(398.354 1575.793)"/>
    <circle id="Ellipse_38" data-name="Ellipse 38" class="cls-10" cx="27.728" cy="27.728" r="27.728" transform="translate(401.41 1578.849)"/>
    <circle id="Ellipse_39" data-name="Ellipse 39" class="cls-11" cx="26.761" cy="26.761" r="26.761" transform="translate(402.377 1579.816)"/>
    <line id="Line_89" data-name="Line 89" class="cls-12" x1="2.634" transform="translate(451.598 1606.577)"/>
    <line id="Line_90" data-name="Line 90" class="cls-12" y1="2.634" transform="translate(429.138 1629.037)"/>
    <line id="Line_91" data-name="Line 91" class="cls-12" x2="2.634" transform="translate(404.044 1606.577)"/>
    <line id="Line_92" data-name="Line 92" class="cls-12" y2="2.645" transform="translate(429.138 1581.471)"/>
    <g id="Group_2345" data-name="Group 2345" class="cls-13" transform="translate(407.4 1584.839)">
      <line id="Line_93" data-name="Line 93" class="cls-14" x1="2.289" y1="1.311" transform="translate(41.186 32.973)"/>
      <line id="Line_94" data-name="Line 94" class="cls-14" y1="2.289" x2="1.311" transform="translate(9.191 41.186)"/>
      <line id="Line_95" data-name="Line 95" class="cls-14" x2="2.289" y2="1.311" transform="translate(0 9.191)"/>
      <line id="Line_96" data-name="Line 96" class="cls-14" x1="1.311" y2="2.278" transform="translate(32.973 0)"/>
      <line id="Line_97" data-name="Line 97" class="cls-14" x1="1.322" y1="2.278" transform="translate(32.962 41.197)"/>
      <line id="Line_98" data-name="Line 98" class="cls-14" y1="1.322" x2="2.278" transform="translate(0 32.962)"/>
      <line id="Line_99" data-name="Line 99" class="cls-14" x2="1.322" y2="2.278" transform="translate(9.191 0)"/>
      <line id="Line_100" data-name="Line 100" class="cls-14" x1="2.278" y2="1.322" transform="translate(41.197 9.191)"/>
    </g>
    <path id="Path_1474" data-name="Path 1474" class="cls-7" d="M34.328,46.365a.834.834,0,0,1-.678-.345L26.86,36.7l6.668-18.115a.834.834,0,1,1,1.556.578L28.727,36.441l6.268,8.6a.834.834,0,0,1-.667,1.322Z" transform="translate(401.344 1570.002)"/>
    <circle id="Ellipse_40" data-name="Ellipse 40" class="cls-15" cx="2.078" cy="2.078" r="2.078" transform="translate(427.059 1604.498)"/>
  </g>
</svg>
